<svg xmlns="http://www.w3.org/2000/svg" viewBox="0 0 48 48" xmlns:xlink="http://www.w3.org/1999/xlink" xml:space="preserve" width="100%" height="100%"><path xmlns="http://www.w3.org/2000/svg" d="M24 4.5C11.574 4.5 1.5 14.677 1.5 27.24a22.8 22.8 0 0 0 5.655 15.082c.11.121.21.243.322.355.886.823 1.155.823 1.858.823s1.165 0 1.868-.832C14.25 39.06 18.938 37.5 24 37.5s9.757 1.567 12.797 5.167c.703.833 1.155.833 1.868.833s1.06 0 1.858-.823c.115-.117.211-.234.322-.355A22.8 22.8 0 0 0 46.5 27.24C46.5 14.677 36.426 4.5 24 4.5m-1.5 6h3v6h-3zm-9 18h-6v-3h6zm2.015-7.864-4.242-4.243 2.12-2.12 4.243 4.242zm10.604 8.183a2.9 2.9 0 0 1-.656.656 2.823 2.823 0 0 1-3.282-4.594L30 21zm4.245-10.304 4.243-4.243 2.12 2.121-4.242 4.243zM40.5 28.5h-6v-3h6z" style="fill: rgb(62, 160, 218);"></path></svg>