<svg xmlns="http://www.w3.org/2000/svg" viewBox="0 0 48 48" xmlns:xlink="http://www.w3.org/1999/xlink" xml:space="preserve" width="100%" height="100%"><path xmlns="http://www.w3.org/2000/svg" d="M0 33.6v3.595C0 37.86.54 38.4 1.205 38.4h2.393A1.2 1.2 0 0 0 4.8 37.195V33.6c0-2.302 1.922-5.455 4.8-6.67v-5.052C4.042 23.165 0 28.728 0 33.6m28.956-22.318-6.072 4.556a4.8 4.8 0 0 1-2.887.962h-5.585A2.41 2.41 0 0 0 12 19.212v9.578c0 1.33 1.08 2.41 2.412 2.41h5.585c1.041 0 2.054.338 2.887.962l6.074 4.556a8.4 8.4 0 0 0 5.045 1.682H38.4V9.6h-4.397c-1.819 0-3.59.59-5.047 1.682M40.8 14.4v4.8H48v-4.8zm0 19.2H48v-4.8h-7.2z" style="fill: rgb(255, 160, 0);"></path></svg>