<svg xmlns="http://www.w3.org/2000/svg" viewBox="0 0 48 48" xmlns:xlink="http://www.w3.org/1999/xlink" xml:space="preserve" width="100%" height="100%"><path xmlns="http://www.w3.org/2000/svg" d="M26 30.56V21a2 2 0 0 0-4 0v9.56A4 4 0 0 0 20 34a4 4 0 0 0 8 0 4 4 0 0 0-2-3.44M33 26V11a9 9 0 0 0-18 0v15a12 12 0 0 0 6.42 19.66A14 14 0 0 0 24 46a12 12 0 0 0 9-20m-4 14.14a8.019 8.019 0 0 1-10.64-12 2 2 0 0 0 .6-1.42V11a5 5 0 0 1 10 0v15.88a2 2 0 0 0 .6 1.42 8 8 0 0 1-.56 12z" style="fill: rgb(220, 29, 29);"></path></svg>